<svg id="svg" version="1.1" xmlns="http://www.w3.org/2000/svg" xmlns:xlink="http://www.w3.org/1999/xlink" width="400" height="400" viewBox="0, 0, 400,400"><g id="svgg"><path id="path0" d="M66.812 40.102 C 66.808 77.861,66.819 78.121,68.474 77.308 C 68.983 77.058,70.120 76.637,71.000 76.374 C 71.880 76.111,73.292 75.559,74.138 75.148 C 74.984 74.736,76.109 74.400,76.638 74.400 C 77.167 74.400,77.600 74.220,77.600 74.000 C 77.600 73.780,78.151 73.600,78.824 73.600 C 79.497 73.600,79.942 73.429,79.813 73.221 C 79.684 73.012,79.927 72.909,80.354 72.991 C 80.780 73.073,81.460 72.889,81.864 72.583 C 82.269 72.276,83.005 72.020,83.500 72.013 C 83.995 72.006,84.400 71.799,84.400 71.553 C 84.400 71.294,84.814 71.186,85.386 71.295 C 85.928 71.399,86.423 71.340,86.486 71.165 C 86.549 70.990,87.111 70.756,87.735 70.644 C 88.359 70.532,89.121 70.231,89.430 69.975 C 89.738 69.720,90.271 69.619,90.616 69.751 C 90.976 69.889,91.138 69.823,90.997 69.595 C 90.863 69.378,91.079 69.200,91.478 69.200 C 91.877 69.200,93.463 68.735,95.002 68.167 C 96.541 67.598,98.070 67.072,98.400 66.997 C 98.730 66.922,99.045 66.825,99.100 66.781 C 99.210 66.692,99.275 66.673,101.000 66.220 C 101.660 66.047,102.605 65.652,103.100 65.343 C 103.595 65.034,104.000 64.880,104.000 65.001 C 104.000 65.122,104.557 64.933,105.237 64.581 C 105.918 64.229,106.558 64.025,106.661 64.127 C 106.763 64.230,107.782 63.950,108.924 63.506 C 110.066 63.062,111.765 62.500,112.700 62.258 C 113.635 62.016,114.400 61.679,114.400 61.509 C 114.400 61.339,115.019 61.200,115.776 61.200 C 116.533 61.200,117.264 61.020,117.400 60.800 C 117.536 60.580,118.087 60.400,118.624 60.400 C 119.161 60.400,119.600 60.220,119.600 60.000 C 119.600 59.780,119.924 59.600,120.320 59.600 C 120.716 59.600,121.211 59.435,121.420 59.234 C 121.629 59.033,122.340 58.809,123.000 58.736 C 123.660 58.663,124.300 58.468,124.422 58.303 C 124.545 58.139,125.130 57.964,125.722 57.915 C 126.315 57.866,126.800 57.705,126.800 57.557 C 126.800 57.279,129.205 56.726,129.658 56.901 C 129.800 56.955,130.288 56.663,130.743 56.251 C 131.198 55.840,131.842 55.607,132.174 55.734 C 132.505 55.862,133.039 55.704,133.360 55.383 C 133.681 55.062,134.325 54.800,134.791 54.800 C 135.258 54.800,136.148 54.537,136.769 54.216 C 137.390 53.895,138.011 53.745,138.149 53.883 C 138.287 54.021,138.400 53.952,138.400 53.731 C 138.400 53.509,139.398 53.088,140.619 52.796 C 141.839 52.503,142.922 52.126,143.025 51.959 C 143.128 51.792,143.661 51.737,144.209 51.836 C 144.757 51.935,145.159 51.878,145.103 51.708 C 145.046 51.539,145.136 51.357,145.302 51.305 C 145.468 51.252,146.218 50.952,146.969 50.639 C 147.720 50.325,148.420 50.153,148.524 50.257 C 148.628 50.362,149.363 50.176,150.157 49.844 C 150.951 49.512,151.603 49.367,151.606 49.520 C 151.609 49.674,151.748 49.587,151.914 49.326 C 152.079 49.065,152.662 48.778,153.207 48.688 C 154.224 48.519,154.626 48.379,157.400 47.229 C 158.280 46.864,159.810 46.330,160.800 46.043 C 161.790 45.757,162.913 45.360,163.295 45.161 C 163.677 44.962,164.352 44.800,164.795 44.800 C 165.238 44.800,165.600 44.620,165.600 44.400 C 165.600 44.180,166.129 44.000,166.776 44.000 C 167.423 44.000,168.064 43.820,168.200 43.600 C 168.336 43.380,168.887 43.200,169.424 43.200 C 169.961 43.200,170.400 43.020,170.400 42.800 C 170.400 42.580,170.940 42.400,171.600 42.400 C 172.260 42.400,172.800 42.220,172.800 42.000 C 172.800 41.780,173.214 41.600,173.720 41.600 C 174.226 41.600,174.811 41.442,175.020 41.250 C 175.354 40.942,180.009 39.296,181.315 39.024 C 181.582 38.968,182.340 38.699,183.000 38.425 C 183.660 38.151,184.644 37.842,185.188 37.740 C 185.731 37.637,186.398 37.368,186.670 37.142 C 186.942 36.916,187.321 36.827,187.511 36.945 C 187.702 37.063,188.302 36.928,188.846 36.646 C 189.390 36.364,190.097 36.120,190.417 36.104 C 191.082 36.070,193.699 35.108,194.000 34.787 C 194.110 34.669,194.470 34.564,194.800 34.552 C 195.510 34.527,196.619 34.134,198.000 33.420 C 198.550 33.135,199.315 32.953,199.700 33.016 C 200.085 33.078,200.400 32.983,200.400 32.805 C 200.400 32.430,204.333 31.386,205.140 31.546 C 205.437 31.605,205.584 31.497,205.466 31.306 C 205.348 31.116,206.095 30.728,207.126 30.445 C 208.157 30.162,209.487 29.747,210.083 29.524 C 210.678 29.300,211.218 29.145,211.283 29.180 C 211.347 29.214,212.075 28.961,212.900 28.616 C 213.725 28.271,214.403 28.127,214.406 28.295 C 214.409 28.463,214.544 28.419,214.706 28.198 C 215.049 27.729,217.566 26.800,218.495 26.800 C 218.846 26.800,219.193 26.626,219.267 26.413 C 219.340 26.200,219.985 25.981,220.700 25.928 C 221.415 25.874,222.000 25.688,222.000 25.515 C 222.000 25.342,222.414 25.200,222.920 25.200 C 223.426 25.200,224.019 25.021,224.238 24.802 C 224.456 24.584,225.109 24.365,225.689 24.317 C 226.268 24.270,226.667 24.109,226.575 23.960 C 226.483 23.811,226.947 23.587,227.607 23.461 C 229.277 23.143,229.740 23.014,230.200 22.736 C 230.420 22.603,231.230 22.362,232.000 22.201 C 232.770 22.040,233.580 21.773,233.800 21.609 C 234.020 21.445,234.687 21.194,235.282 21.052 C 235.878 20.910,236.868 20.585,237.482 20.330 C 238.097 20.076,238.870 19.836,239.200 19.797 C 239.530 19.759,240.520 19.400,241.400 19.000 C 242.280 18.599,243.405 18.298,243.900 18.331 C 244.428 18.366,244.800 18.163,244.800 17.838 C 244.800 17.534,245.205 17.276,245.700 17.265 C 247.253 17.231,249.200 16.724,249.200 16.355 C 249.200 16.160,249.539 16.000,249.954 16.000 C 250.369 16.000,251.224 15.732,251.854 15.405 C 252.484 15.078,253.338 14.917,253.750 15.048 C 254.240 15.203,254.405 15.132,254.226 14.843 C 254.054 14.564,254.323 14.400,254.953 14.400 C 255.503 14.400,256.064 14.220,256.200 14.000 C 256.336 13.780,256.799 13.600,257.229 13.600 C 257.659 13.600,258.323 13.435,258.705 13.234 C 260.288 12.401,263.480 11.265,264.600 11.137 C 265.260 11.062,266.040 10.773,266.332 10.496 C 266.625 10.219,267.030 10.095,267.232 10.220 C 267.435 10.345,267.600 10.257,267.600 10.024 C 267.600 9.791,268.039 9.600,268.576 9.600 C 269.113 9.600,269.664 9.420,269.800 9.200 C 269.936 8.980,270.476 8.800,271.000 8.800 C 271.524 8.800,272.064 8.620,272.200 8.400 C 272.336 8.180,272.977 8.000,273.624 8.000 C 274.271 8.000,274.800 7.820,274.800 7.600 C 274.800 7.380,275.239 7.200,275.776 7.200 C 276.313 7.200,276.864 7.020,277.000 6.800 C 277.136 6.580,277.766 6.400,278.400 6.400 C 279.034 6.400,279.674 6.204,279.822 5.965 C 279.969 5.726,280.423 5.617,280.830 5.724 C 281.639 5.935,282.263 5.343,282.225 4.400 C 282.203 3.868,269.911 3.789,174.508 3.702 L 66.816 3.604 66.812 40.102 M331.187 32.783 C 330.850 32.981,330.040 33.200,329.387 33.271 C 328.734 33.342,327.871 33.760,327.470 34.200 C 327.068 34.640,326.865 34.756,327.019 34.459 C 327.218 34.073,327.011 34.105,326.299 34.572 C 325.749 34.932,324.872 35.307,324.350 35.405 C 323.827 35.503,323.040 35.742,322.600 35.936 C 321.097 36.599,318.944 37.200,318.072 37.200 C 317.592 37.200,317.200 37.380,317.200 37.600 C 317.200 37.820,316.927 38.000,316.594 38.000 C 315.624 38.000,312.800 38.966,312.800 39.297 C 312.800 39.464,312.350 39.600,311.800 39.600 C 311.250 39.600,310.800 39.780,310.800 40.000 C 310.800 40.220,310.350 40.400,309.800 40.400 C 309.250 40.400,308.800 40.536,308.800 40.703 C 308.800 41.034,305.976 42.000,305.006 42.000 C 304.673 42.000,304.400 42.180,304.400 42.400 C 304.400 42.620,303.890 42.800,303.267 42.800 C 302.643 42.800,302.010 42.923,301.859 43.074 C 301.420 43.513,298.681 44.387,297.724 44.394 C 297.242 44.397,296.733 44.585,296.593 44.811 C 296.454 45.036,296.128 45.195,295.870 45.163 C 294.942 45.049,294.356 45.206,294.549 45.517 C 294.656 45.691,294.368 45.862,293.908 45.897 C 293.448 45.932,292.966 46.126,292.836 46.330 C 292.706 46.533,291.970 46.847,291.200 47.027 C 289.200 47.495,289.220 47.490,289.000 47.600 C 288.890 47.655,288.665 47.729,288.500 47.765 C 288.335 47.801,287.532 48.156,286.715 48.554 C 285.898 48.951,285.000 49.200,284.719 49.106 C 284.437 49.012,283.970 49.172,283.681 49.462 C 283.392 49.751,282.764 49.928,282.287 49.856 C 281.810 49.783,281.167 49.976,280.858 50.285 C 280.549 50.593,280.043 50.749,279.733 50.630 C 279.423 50.511,279.071 50.669,278.951 50.982 C 278.730 51.560,276.645 52.235,275.660 52.049 C 275.363 51.992,275.238 52.139,275.383 52.373 C 275.529 52.608,275.367 52.800,275.024 52.800 C 274.092 52.800,274.113 52.795,272.707 53.365 C 271.988 53.657,271.150 53.806,270.844 53.696 C 270.504 53.574,270.397 53.672,270.568 53.948 C 270.752 54.246,270.431 54.400,269.624 54.400 C 268.951 54.400,268.400 54.580,268.400 54.800 C 268.400 55.020,267.871 55.200,267.224 55.200 C 266.577 55.200,265.936 55.380,265.800 55.600 C 265.664 55.820,265.209 56.000,264.789 56.000 C 264.368 56.000,263.383 56.360,262.600 56.800 C 261.817 57.240,260.721 57.600,260.164 57.600 C 259.592 57.600,259.260 57.774,259.400 58.000 C 259.540 58.227,259.202 58.400,258.618 58.400 C 258.052 58.400,257.277 58.567,256.895 58.771 C 256.234 59.124,255.068 59.585,254.200 59.837 C 253.023 60.179,251.716 60.482,251.068 60.564 C 250.665 60.615,250.195 60.884,250.023 61.163 C 249.851 61.441,249.353 61.608,248.917 61.534 C 248.480 61.461,247.825 61.647,247.461 61.949 C 247.098 62.251,246.797 62.341,246.794 62.149 C 246.791 61.957,246.648 62.020,246.477 62.290 C 246.305 62.559,245.813 62.838,245.383 62.909 C 244.952 62.981,244.202 63.258,243.716 63.525 C 243.230 63.792,242.690 63.970,242.516 63.920 C 242.342 63.871,241.795 64.055,241.300 64.329 C 240.805 64.604,240.400 64.733,240.400 64.617 C 240.400 64.397,237.498 65.396,236.317 66.023 C 235.942 66.222,234.907 66.501,234.017 66.644 C 233.128 66.786,232.400 67.089,232.400 67.318 C 232.400 67.546,232.285 67.618,232.144 67.477 C 232.003 67.336,231.418 67.471,230.844 67.776 C 229.990 68.230,225.137 70.077,224.400 70.228 C 224.163 70.277,222.961 70.721,221.681 71.233 C 221.176 71.435,220.411 71.600,219.981 71.600 C 219.552 71.600,219.200 71.780,219.200 72.000 C 219.200 72.220,218.862 72.400,218.449 72.400 C 218.036 72.400,217.047 72.672,216.251 73.005 C 215.455 73.337,214.758 73.612,214.702 73.616 C 213.965 73.665,212.800 74.173,212.800 74.447 C 212.800 74.641,212.448 74.800,212.019 74.800 C 211.278 74.800,210.077 75.202,208.127 76.103 C 207.647 76.325,206.987 76.404,206.660 76.278 C 206.333 76.153,205.967 76.309,205.846 76.625 C 205.724 76.941,205.304 77.203,204.913 77.206 C 204.521 77.209,203.480 77.463,202.601 77.769 C 201.406 78.184,200.926 78.208,200.707 77.863 C 200.516 77.563,200.410 77.647,200.406 78.100 C 200.401 78.707,199.715 79.008,198.700 78.847 C 198.535 78.821,198.400 78.980,198.400 79.200 C 198.400 79.420,198.051 79.600,197.624 79.600 C 197.197 79.600,196.736 79.780,196.600 80.000 C 196.464 80.220,195.913 80.400,195.376 80.400 C 194.839 80.400,194.400 80.541,194.400 80.713 C 194.400 80.885,193.915 81.066,193.322 81.115 C 192.730 81.164,192.102 81.428,191.929 81.702 C 191.755 81.976,191.609 82.063,191.606 81.895 C 191.603 81.727,191.015 81.825,190.300 82.112 C 189.585 82.400,188.730 82.621,188.400 82.604 C 188.070 82.587,187.702 82.710,187.583 82.877 C 187.463 83.044,186.923 83.230,186.383 83.290 C 185.842 83.351,185.302 83.530,185.183 83.690 C 185.063 83.849,184.573 84.040,184.093 84.113 C 183.613 84.186,183.096 84.371,182.944 84.523 C 182.791 84.675,182.146 84.800,181.510 84.800 C 180.873 84.800,180.440 84.942,180.548 85.115 C 180.655 85.288,180.170 85.662,179.471 85.946 C 178.772 86.230,177.535 86.741,176.722 87.082 C 175.908 87.423,174.954 87.591,174.601 87.456 C 174.247 87.320,174.046 87.351,174.154 87.525 C 174.261 87.698,173.505 88.068,172.474 88.347 C 171.443 88.625,170.287 89.021,169.905 89.227 C 169.523 89.432,168.936 89.600,168.601 89.600 C 168.266 89.600,167.228 89.945,166.296 90.368 C 164.395 91.228,162.929 91.706,161.926 91.791 C 161.555 91.822,160.475 92.217,159.526 92.669 C 157.994 93.397,154.563 94.641,153.122 94.991 C 152.835 95.061,152.240 95.236,151.800 95.379 C 151.360 95.523,150.840 95.616,150.645 95.586 C 150.449 95.556,150.166 95.731,150.015 95.975 C 149.865 96.219,149.394 96.486,148.971 96.569 C 147.948 96.769,143.777 98.190,141.913 98.974 C 141.095 99.319,139.959 99.600,139.389 99.600 C 138.819 99.600,138.442 99.744,138.551 99.920 C 138.660 100.096,137.905 100.464,136.874 100.736 C 135.843 101.009,134.447 101.405,133.772 101.616 C 133.096 101.827,132.256 102.000,131.905 102.000 C 131.554 102.000,131.207 102.175,131.133 102.388 C 131.060 102.602,130.550 102.827,130.000 102.888 C 129.450 102.950,128.910 103.099,128.800 103.219 C 128.179 103.899,124.429 105.095,124.254 104.668 C 124.117 104.332,124.054 104.341,124.032 104.700 C 124.014 104.975,123.539 105.200,122.976 105.200 C 122.396 105.200,122.060 105.373,122.200 105.600 C 122.347 105.838,121.791 106.024,120.824 106.060 C 118.363 106.151,118.219 106.175,117.958 106.530 C 117.825 106.712,116.835 106.895,115.758 106.937 C 114.681 106.979,113.590 107.147,113.333 107.310 C 112.667 107.733,98.062 107.739,97.482 107.317 C 97.217 107.123,96.104 106.918,95.010 106.861 C 93.915 106.803,92.925 106.631,92.810 106.478 C 92.694 106.325,91.883 106.142,91.006 106.071 C 90.129 106.000,89.319 105.800,89.206 105.628 C 89.093 105.455,88.700 105.360,88.333 105.416 C 87.966 105.473,87.181 105.268,86.587 104.960 C 85.994 104.652,85.214 104.396,84.854 104.391 C 84.494 104.386,83.750 104.030,83.200 103.600 C 82.650 103.170,81.885 102.814,81.500 102.809 C 81.115 102.804,80.800 102.609,80.800 102.376 C 80.800 102.143,80.620 102.064,80.400 102.200 C 80.180 102.336,80.000 102.257,80.000 102.024 C 80.000 101.791,79.865 101.641,79.700 101.692 C 79.282 101.819,76.800 100.298,76.800 99.914 C 76.800 99.741,76.522 99.600,76.183 99.600 C 75.844 99.600,75.300 99.375,74.975 99.100 C 72.829 97.287,72.060 96.473,72.281 96.253 C 72.420 96.114,72.233 96.000,71.867 96.000 C 71.467 96.000,71.200 95.680,71.200 95.200 C 71.200 94.742,70.933 94.400,70.576 94.400 C 70.233 94.400,70.064 94.220,70.200 94.000 C 70.336 93.780,70.227 93.600,69.957 93.600 C 69.687 93.600,69.587 93.479,69.735 93.332 C 69.882 93.184,69.765 92.689,69.474 92.232 C 69.184 91.774,68.965 90.823,68.989 90.118 C 69.012 89.413,68.952 88.915,68.855 89.012 C 68.758 89.108,68.464 88.893,68.200 88.533 C 67.937 88.172,67.513 88.007,67.258 88.164 C 66.633 88.550,66.600 371.429,67.225 371.815 C 67.509 371.991,67.506 372.232,67.214 372.583 C 66.907 372.953,66.961 373.236,67.413 373.611 C 67.756 373.895,67.932 374.400,67.805 374.732 C 67.677 375.064,67.741 375.440,67.946 375.568 C 68.152 375.696,68.383 376.160,68.460 376.600 C 68.537 377.040,68.835 377.648,69.123 377.952 C 69.411 378.255,69.564 378.718,69.463 378.980 C 69.362 379.243,69.622 379.671,70.040 379.932 C 70.458 380.193,70.800 380.660,70.800 380.970 C 70.800 381.653,77.320 388.400,77.980 388.400 C 78.237 388.400,78.336 388.580,78.200 388.800 C 78.064 389.020,78.323 389.200,78.776 389.200 C 79.229 389.200,79.600 389.335,79.600 389.501 C 79.600 389.807,81.966 391.096,84.280 392.050 C 85.121 392.397,85.395 392.682,85.080 392.883 C 84.796 393.063,85.079 393.190,85.772 393.194 C 86.954 393.200,89.631 393.989,90.000 394.440 C 90.110 394.574,91.010 394.802,92.000 394.946 C 96.377 395.583,97.017 395.729,97.294 396.152 C 97.494 396.458,97.590 396.426,97.594 396.051 C 97.598 395.676,97.758 395.622,98.100 395.883 C 98.871 396.470,111.133 396.554,111.828 395.976 C 112.272 395.608,112.400 395.614,112.400 396.000 C 112.400 396.350,112.549 396.376,112.900 396.089 C 113.175 395.864,114.300 395.588,115.400 395.477 C 116.500 395.365,117.850 395.115,118.400 394.920 C 118.950 394.726,119.986 394.603,120.702 394.648 C 121.418 394.694,121.903 394.566,121.779 394.365 C 121.654 394.164,122.103 394.000,122.776 394.000 C 123.449 394.000,124.000 393.853,124.000 393.672 C 124.000 393.333,127.968 392.123,128.500 392.300 C 128.665 392.355,128.800 392.220,128.800 392.000 C 128.800 391.780,129.239 391.600,129.776 391.600 C 130.313 391.600,130.864 391.420,131.000 391.200 C 131.136 390.980,131.605 390.800,132.043 390.800 C 132.481 390.800,133.581 390.441,134.489 390.003 C 135.396 389.564,136.220 389.287,136.320 389.387 C 136.420 389.487,137.038 389.290,137.695 388.951 C 138.351 388.612,138.768 388.529,138.620 388.767 C 138.216 389.422,138.575 389.289,139.590 388.408 C 140.092 387.973,140.671 387.721,140.877 387.847 C 141.082 387.974,141.600 387.762,142.028 387.375 C 142.455 386.988,142.922 386.789,143.066 386.932 C 143.209 387.076,143.537 387.018,143.795 386.804 C 144.052 386.591,144.609 386.359,145.031 386.288 C 145.454 386.218,146.207 385.937,146.705 385.664 C 147.202 385.391,147.832 385.206,148.105 385.253 C 148.553 385.330,149.980 384.824,151.615 384.006 C 151.954 383.837,152.975 383.573,153.884 383.420 C 154.793 383.266,155.640 382.872,155.766 382.545 C 155.892 382.217,156.193 382.072,156.435 382.222 C 156.678 382.372,157.264 382.298,157.738 382.059 C 159.369 381.234,164.000 379.636,164.000 379.898 C 164.000 380.042,164.216 379.944,164.480 379.680 C 164.744 379.416,165.338 379.200,165.800 379.200 C 166.262 379.200,166.811 379.051,167.020 378.870 C 167.229 378.688,168.210 378.292,169.200 377.990 C 170.190 377.688,171.405 377.186,171.900 376.875 C 172.395 376.563,172.800 376.441,172.800 376.603 C 172.800 376.765,173.043 376.696,173.340 376.449 C 173.638 376.203,174.349 375.962,174.921 375.915 C 175.494 375.867,175.879 375.746,175.777 375.644 C 175.544 375.410,178.369 374.414,179.288 374.406 C 179.666 374.403,180.566 374.069,181.288 373.665 C 182.010 373.261,182.915 372.901,183.300 372.865 C 184.986 372.708,185.200 372.649,185.200 372.333 C 185.200 372.150,185.530 372.000,185.933 372.000 C 186.337 372.000,186.802 371.865,186.967 371.700 C 187.132 371.535,187.387 371.392,187.533 371.383 C 188.142 371.344,191.036 370.267,191.482 369.913 C 191.748 369.703,192.138 369.638,192.350 369.769 C 192.562 369.900,193.007 369.736,193.338 369.405 C 193.669 369.073,194.209 368.905,194.538 369.032 C 194.867 369.158,195.606 368.953,196.180 368.576 C 196.755 368.200,197.338 368.004,197.476 368.142 C 197.614 368.280,197.986 368.178,198.304 367.914 C 198.621 367.651,199.088 367.394,199.340 367.344 C 199.593 367.293,200.371 367.077,201.070 366.863 C 201.768 366.648,202.472 366.592,202.634 366.737 C 202.796 366.881,202.799 366.775,202.641 366.500 C 202.373 366.035,202.865 365.805,203.763 365.974 C 203.963 366.011,204.233 365.871,204.363 365.662 C 204.494 365.453,205.050 365.219,205.600 365.141 C 206.150 365.064,206.698 364.870,206.817 364.710 C 206.937 364.551,207.387 364.353,207.817 364.270 C 208.248 364.188,208.870 364.010,209.200 363.874 C 211.201 363.055,213.401 362.477,213.735 362.683 C 213.950 362.816,213.996 362.717,213.838 362.462 C 213.658 362.169,213.857 362.000,214.382 362.000 C 214.838 362.000,215.523 361.841,215.905 361.647 C 218.073 360.544,222.397 359.132,222.406 359.524 C 222.409 359.676,222.544 359.617,222.706 359.393 C 223.126 358.813,228.338 357.114,228.808 357.405 C 229.023 357.538,229.200 357.491,229.200 357.301 C 229.200 356.932,231.170 356.014,233.800 355.158 C 234.680 354.871,235.571 354.493,235.780 354.318 C 235.989 354.143,236.538 354.000,237.000 354.000 C 237.462 354.000,238.082 353.775,238.379 353.500 C 238.815 353.095,238.855 353.109,238.588 353.576 C 238.381 353.938,238.794 353.822,239.695 353.265 C 240.485 352.777,241.282 352.411,241.466 352.453 C 241.650 352.495,242.276 352.332,242.857 352.091 C 243.438 351.850,244.301 351.754,244.774 351.877 C 245.373 352.034,245.599 351.935,245.517 351.551 C 245.446 351.216,245.677 351.047,246.105 351.119 C 246.493 351.184,246.913 350.970,247.038 350.644 C 247.164 350.318,247.507 350.143,247.801 350.256 C 248.095 350.368,248.800 350.156,249.368 349.784 C 249.935 349.412,250.400 349.229,250.400 349.377 C 250.400 349.524,250.781 349.379,251.246 349.053 C 251.711 348.727,252.343 348.557,252.651 348.675 C 252.959 348.793,253.433 348.715,253.705 348.501 C 254.533 347.853,258.073 346.798,258.512 347.069 C 258.749 347.216,258.803 347.128,258.638 346.862 C 258.472 346.592,258.613 346.379,258.976 346.350 C 259.319 346.322,259.741 346.278,259.913 346.250 C 260.301 346.188,263.552 344.846,264.495 344.359 C 264.877 344.162,265.541 344.000,265.971 344.000 C 266.401 344.000,266.864 343.820,267.000 343.600 C 267.136 343.380,267.777 343.200,268.424 343.200 C 269.071 343.200,269.600 343.020,269.600 342.800 C 269.600 342.580,270.039 342.400,270.576 342.400 C 271.113 342.400,271.664 342.220,271.800 342.000 C 271.936 341.780,272.472 341.600,272.990 341.600 C 273.509 341.600,273.997 341.409,274.075 341.176 C 274.152 340.943,274.797 340.735,275.508 340.715 C 276.219 340.695,276.800 340.526,276.800 340.339 C 276.800 340.153,277.340 340.000,278.000 340.000 C 278.660 340.000,279.200 339.826,279.200 339.613 C 279.200 339.399,279.447 339.320,279.748 339.436 C 280.050 339.551,280.399 339.380,280.523 339.055 C 280.659 338.702,281.157 338.510,281.764 338.576 C 282.321 338.637,282.682 338.533,282.565 338.344 C 282.448 338.155,282.532 338.000,282.750 338.000 C 282.969 338.000,283.655 337.792,284.274 337.539 C 285.268 337.132,285.862 336.964,287.400 336.657 C 287.620 336.613,288.025 336.437,288.300 336.265 C 288.575 336.093,288.961 336.052,289.158 336.174 C 289.355 336.296,289.624 336.114,289.756 335.770 C 289.915 335.355,290.266 335.230,290.798 335.399 C 291.239 335.539,291.600 335.503,291.600 335.318 C 291.600 335.133,292.365 334.791,293.300 334.557 C 295.866 333.915,296.183 333.817,296.400 333.600 C 296.609 333.391,299.105 332.423,299.800 332.282 C 300.020 332.237,300.315 332.043,300.455 331.850 C 300.594 331.658,301.179 331.500,301.755 331.500 C 302.330 331.500,302.800 331.343,302.800 331.150 C 302.800 330.957,303.340 330.800,304.000 330.800 C 304.660 330.800,305.200 330.658,305.200 330.485 C 305.200 330.312,305.517 330.146,305.904 330.117 C 307.144 330.024,307.768 329.812,308.323 329.296 C 308.621 329.019,309.041 328.902,309.257 329.036 C 309.474 329.169,309.954 329.004,310.325 328.668 C 310.696 328.332,311.133 328.039,311.296 328.018 C 311.720 327.961,312.853 327.594,313.919 327.167 C 314.424 326.965,315.174 326.800,315.585 326.800 C 315.997 326.800,316.396 326.612,316.473 326.382 C 316.549 326.152,317.014 325.934,317.506 325.897 C 317.998 325.860,318.400 325.688,318.400 325.515 C 318.400 325.342,319.041 325.200,319.824 325.200 C 320.671 325.200,321.147 325.038,321.000 324.800 C 320.860 324.573,321.198 324.400,321.782 324.400 C 322.348 324.400,323.123 324.241,323.505 324.047 C 324.212 323.687,325.556 323.118,327.000 322.567 C 327.440 322.399,328.234 322.212,328.765 322.150 C 329.295 322.088,329.855 321.834,330.009 321.585 C 330.163 321.336,330.407 321.161,330.551 321.196 C 330.695 321.232,331.348 321.143,332.002 320.999 L 333.191 320.738 333.198 177.347 C 333.205 24.875,333.298 31.547,331.187 32.783 " stroke="none" fill="#fcc404" fill-rule="evenodd"></path><path id="path1" d="" stroke="none" fill="#100c404" fill-rule="evenodd"></path><path id="path2" d="" stroke="none" fill="#100c404" fill-rule="evenodd"></path><path id="path3" d="" stroke="none" fill="#100c404" fill-rule="evenodd"></path><path id="path4" d="" stroke="none" fill="#100c404" fill-rule="evenodd"></path></g></svg>